# xmcd
#
# Track frame offsets: 
#        182
#        19722
#        32140
#        46137
#        58637
#        71282
#        85820
#        99162
#        114820
#        132815
#
# Disc length: 2009 seconds
#
# Revision: 2
# Processed by: cddbd v1.5.2PL0 Copyright (c) Steve Scherf et al.
# Submitted via: ExactAudioCopy v0.95a4
#
DISCID=6e07d70a
DTITLE=Jo-El Sonnier - Hello Happiness Again
DYEAR=1992
DGENRE=Country
TTITLE0=Cafe Du Monde
TTITLE1=Cry Like A Baby
TTITLE2=Someday I Will Lead The Parade
TTITLE3=Hello Happiness Again
TTITLE4=Field Of Love
TTITLE5='65 Blue
TTITLE6=So Lonesome In My Heart
TTITLE7=Hole In The Clouds
TTITLE8=Is My Love Enough?
TTITLE9=French Quarter Moon
EXTD=
EXTT0=
EXTT1=
EXTT2=
EXTT3=
EXTT4=
EXTT5=
EXTT6=
EXTT7=
EXTT8=
EXTT9=
PLAYORDER=
